<?xml version="1.0" encoding="UTF-8" standalone="no"?>
<!DOCTYPE svg PUBLIC "-//W3C//DTD SVG 20010904//EN"
              "http://www.w3.org/TR/2001/REC-SVG-20010904/DTD/svg10.dtd">

<svg xmlns="http://www.w3.org/2000/svg"
     width="22.2222in" height="22.2222in"
     viewBox="0 0 2000 2000">
  <path id="jaw"
        fill="none" stroke="black" stroke-width="1"
        d="M 310.00,1122.00
           C 310.00,1122.00 417.00,970.00 417.00,970.00
             417.00,970.00 519.00,1057.00 519.00,1057.00
             519.00,1057.00 499.00,1237.00 499.00,1237.00
             499.00,1237.00 580.00,1350.00 580.00,1350.00
             580.00,1350.00 622.00,1189.00 622.00,1189.00
             622.00,1189.00 723.00,1156.00 723.00,1156.00
             723.00,1156.00 777.00,1234.00 777.00,1234.00
             777.00,1234.00 760.00,1398.00 760.00,1398.00
             760.00,1398.00 942.00,1415.00 942.00,1415.00
             942.00,1415.00 942.00,1278.00 942.00,1278.00
             942.00,1278.00 1055.00,1275.00 1055.00,1275.00
             1055.00,1275.00 1064.00,1423.00 1064.00,1423.00
             1064.00,1423.00 1193.00,1411.00 1193.00,1411.00
             1193.00,1411.00 1215.00,1268.00 1215.00,1268.00
             1215.00,1268.00 1295.00,1201.00 1295.00,1201.00
             1295.00,1201.00 1378.00,1277.00 1378.00,1277.00
             1378.00,1277.00 1377.00,1394.00 1377.00,1394.00
             1377.00,1394.00 1473.00,1301.00 1473.00,1301.00
             1473.00,1301.00 1458.00,1082.00 1458.00,1082.00
             1458.00,1082.00 1544.00,985.00 1544.00,985.00
             1544.00,985.00 1664.00,1055.00 1664.00,1055.00
             1664.00,1055.00 1496.00,1472.00 1496.00,1472.00
             1496.00,1472.00 1336.00,1602.00 1336.00,1602.00
             1336.00,1602.00 1341.00,1735.00 1341.00,1735.00
             1341.00,1735.00 1186.00,1874.00 1186.00,1874.00
             1186.00,1874.00 1039.00,1799.00 1039.00,1799.00
             1039.00,1799.00 969.00,1680.00 969.00,1680.00
             969.00,1680.00 921.00,1790.00 921.00,1790.00
             921.00,1790.00 771.00,1844.00 771.00,1844.00
             771.00,1844.00 605.00,1747.00 605.00,1747.00
             605.00,1747.00 619.00,1614.00 619.00,1614.00
             619.00,1614.00 456.00,1448.00 456.00,1448.00
             456.00,1448.00 310.00,1122.00 310.00,1122.00 Z
           M 718.00,506.00" />
</svg>
