<?xml version="1.0" encoding="UTF-8" standalone="no"?>
<!DOCTYPE svg PUBLIC "-//W3C//DTD SVG 20010904//EN" "http://www.w3.org/TR/2001/REC-SVG-20010904/DTD/svg10.dtd">

<svg id="svgSkull" xmlns="http://www.w3.org/2000/svg" width="100%" height="100%" viewBox="0 0 2000 2000">
   <path id="skull" fill="none" stroke="black" stroke-width="1" d="M 1014.00,87.00
           C 1017.00,87.00 1326.00,175.50 1326.00,175.50
             1326.00,175.50 1442.50,446.50 1441.50,445.50
             1440.50,444.50 1219.00,685.00 1221.00,685.00
             1223.00,685.00 1329.00,675.00 1329.00,675.00
             1329.00,675.00 1422.00,772.00 1422.00,772.00
             1422.00,772.00 1338.00,926.00 1338.00,926.00
             1338.00,926.00 1246.00,872.00 1246.00,872.00
             1246.00,872.00 1184.00,948.00 1184.00,948.00
             1184.00,948.00 1188.00,1078.00 1188.00,1078.00
             1188.00,1078.00 1060.00,1072.00 1060.00,1072.00
             1060.00,1072.00 1061.00,954.00 1061.00,954.00
             1061.00,954.00 959.00,960.00 959.00,960.00
             959.00,960.00 958.00,1085.00 958.00,1085.00
             958.00,1085.00 838.00,1086.00 838.00,1086.00
             838.00,1086.00 845.00,948.00 845.00,948.00
             845.00,948.00 779.00,892.00 779.00,892.00
             779.00,892.00 672.00,941.00 672.00,941.00
             672.00,941.00 611.00,808.00 611.00,808.00
             611.00,808.00 663.00,700.00 663.00,700.00
             663.00,700.00 745.00,691.00 745.00,691.00
             745.00,691.00 507.00,469.50 507.00,469.50
             507.00,469.50 699.00,151.50 699.00,151.50
             699.00,151.50 1011.00,87.00 1014.00,87.00 Z" />
   <path id="nostrilLeft" class="nostril" fill="none" stroke="black" stroke-width="1" d="M 1067.33,803.67
           C 1064.00,842.33 1010.67,799.67 1046.00,787.67
             1046.00,787.67 1038.67,689.00 1038.67,689.00
             1002.67,672.33 1056.67,637.67 1053.33,675.67
             1053.33,675.67 1112.67,763.67 1112.67,763.67
             1149.33,758.33 1134.67,814.33 1109.33,790.33
             1109.33,790.33 1067.33,803.67 1067.33,803.67 Z" />
   <path id="nostrilRight" class="nostril" fill="none" stroke="black" stroke-width="1" d="M 888.00,824.33
           C 870.00,860.33 832.67,805.00 872.00,805.67
             872.00,805.67 942.00,696.33 942.00,696.33
             924.00,661.00 982.00,673.67 958.00,697.67
             958.00,697.67 954.00,797.67 954.00,797.67
             988.67,800.33 964.00,850.33 939.33,825.00
             939.33,825.00 888.00,824.33 888.00,824.33 Z" />
   <path id="eyeLeft" class="eye" fill="none" stroke="black" stroke-width="1" d="M 1100.00,426.00
           C 1070.00,432.50 1070.50,390.50 1101.50,394.50
             1101.50,394.50 1133.00,333.50 1133.00,333.50
             1111.50,316.00 1144.00,285.00 1160.50,304.50
             1160.50,304.50 1237.50,298.00 1237.50,298.50
             1248.00,275.00 1278.00,300.00 1263.50,314.00
             1263.50,314.00 1295.50,375.00 1295.50,375.00
             1322.00,376.00 1319.00,412.50 1296.50,412.00
             1296.00,412.00 1269.50,451.50 1269.50,451.50
             1290.00,469.50 1260.50,495.00 1245.00,468.50
             1245.00,468.50 1171.50,481.50 1171.50,481.50
             1167.50,507.50 1130.00,497.50 1145.00,471.00
             1145.00,471.00 1100.00,426.00 1100.00,426.00 Z" />
   <path id="eyeRight" class="eye" fill="none" stroke="black" stroke-width="1" d="M 758.00,510.50
           C 752.50,544.00 709.00,523.50 719.50,502.50
             719.50,502.50 685.00,448.50 685.00,448.50
             648.50,442.50 656.50,398.00 691.00,408.50
             691.00,408.50 732.50,343.50 732.50,343.50
             709.50,319.00 738.50,291.00 761.50,320.00
             761.50,320.00 834.50,306.50 834.50,306.50
             847.50,280.50 884.50,302.00 864.00,323.00
             864.00,323.00 900.50,385.50 900.50,385.50
             928.50,382.00 931.50,427.00 896.50,421.50
             896.50,421.50 851.00,471.00 851.00,471.00
             872.00,490.00 848.50,525.00 824.50,499.50
             824.50,499.50 760.00,510.50 758.00,510.50 Z" />
   <path id="jaw" fill="none" stroke="black" stroke-width="1" d="M 310.00,1122.00
           C 310.00,1122.00 417.00,970.00 417.00,970.00
             417.00,970.00 519.00,1057.00 519.00,1057.00
             519.00,1057.00 499.00,1237.00 499.00,1237.00
             499.00,1237.00 580.00,1350.00 580.00,1350.00
             580.00,1350.00 622.00,1189.00 622.00,1189.00
             622.00,1189.00 723.00,1156.00 723.00,1156.00
             723.00,1156.00 777.00,1234.00 777.00,1234.00
             777.00,1234.00 760.00,1398.00 760.00,1398.00
             760.00,1398.00 942.00,1415.00 942.00,1415.00
             942.00,1415.00 942.00,1278.00 942.00,1278.00
             942.00,1278.00 1055.00,1275.00 1055.00,1275.00
             1055.00,1275.00 1064.00,1423.00 1064.00,1423.00
             1064.00,1423.00 1193.00,1411.00 1193.00,1411.00
             1193.00,1411.00 1215.00,1268.00 1215.00,1268.00
             1215.00,1268.00 1295.00,1201.00 1295.00,1201.00
             1295.00,1201.00 1378.00,1277.00 1378.00,1277.00
             1378.00,1277.00 1377.00,1394.00 1377.00,1394.00
             1377.00,1394.00 1473.00,1301.00 1473.00,1301.00
             1473.00,1301.00 1458.00,1082.00 1458.00,1082.00
             1458.00,1082.00 1544.00,985.00 1544.00,985.00
             1544.00,985.00 1664.00,1055.00 1664.00,1055.00
             1664.00,1055.00 1336.00,1602.00 1336.00,1602.00
             1336.00,1602.00 1341.00,1735.00 1341.00,1735.00
             1341.00,1735.00 1186.00,1874.00 1186.00,1874.00
             1186.00,1874.00 1039.00,1799.00 1039.00,1799.00
             1039.00,1799.00 969.00,1680.00 969.00,1680.00
             969.00,1680.00 921.00,1790.00 921.00,1790.00
             921.00,1790.00 771.00,1844.00 771.00,1844.00
             771.00,1844.00 605.00,1747.00 605.00,1747.00
             605.00,1747.00 619.00,1614.00 619.00,1614.00
             619.00,1614.00 456.00,1448.00 456.00,1448.00
             456.00,1448.00 310.00,1122.00 310.00,1122.00 Z
           M 718.00,506.00" />
   <path id="jawDetails" fill="none" stroke="black" stroke-width="1" d="M 1075.50,1528.50
           C 1071.00,1508.00 1090.99,1498.23 1111.50,1515.50
             1111.50,1515.50 1135.60,1508.70 1164.00,1504.50
             1191.33,1500.46 1223.00,1499.00 1223.00,1499.00
             1227.87,1474.64 1255.00,1480.00 1257.00,1498.00
             1259.00,1516.00 1249.50,1531.00 1223.50,1509.50
             1223.50,1509.50 1186.00,1509.00 1177.50,1516.00
             1175.04,1518.02 1179.16,1532.73 1180.00,1557.00
             1181.01,1586.12 1177.48,1629.96 1178.00,1661.50
             1178.54,1694.57 1183.17,1714.71 1186.50,1716.50
             1193.00,1720.00 1231.00,1708.50 1231.00,1708.50
             1245.08,1677.74 1266.00,1691.50 1267.00,1708.50
             1268.00,1725.50 1252.40,1739.97 1233.50,1722.50
             1233.50,1722.50 1122.50,1741.00 1122.50,1741.00
             1113.08,1753.22 1092.50,1765.00 1085.00,1740.50
             1077.50,1716.00 1102.62,1702.93 1123.00,1729.00
             1123.00,1729.00 1169.00,1728.50 1175.00,1718.50
             1181.00,1708.50 1169.60,1695.30 1168.50,1662.00
             1167.88,1643.19 1170.80,1604.43 1170.50,1584.00
             1169.91,1543.21 1166.06,1523.77 1162.50,1520.00
             1154.00,1511.00 1114.00,1527.50 1114.00,1527.50
             1100.88,1547.29 1080.00,1549.00 1075.50,1528.50 Z
           M 719.00,1508.00
           C 715.66,1495.48 729.16,1478.06 748.50,1500.00
             748.50,1500.00 776.33,1508.64 803.50,1512.00
             826.48,1514.84 849.50,1512.50 849.50,1512.50
             867.46,1496.67 882.50,1507.50 880.00,1523.50
             877.50,1539.50 858.84,1547.73 847.50,1524.00
             847.50,1524.00 814.50,1517.50 806.50,1525.50
             798.50,1533.50 779.50,1686.00 783.50,1689.50
             787.50,1693.00 818.00,1694.00 818.00,1694.00
             831.50,1664.50 851.50,1683.00 848.50,1698.00
             845.50,1713.00 831.72,1725.09 818.00,1703.50
             818.00,1703.50 799.22,1703.34 779.50,1700.00
             756.69,1696.13 732.50,1689.00 732.50,1689.00
             716.34,1704.91 699.50,1696.00 702.50,1676.50
             705.50,1657.00 722.18,1655.87 734.50,1680.50
             734.50,1680.50 764.50,1690.50 771.50,1689.50
             778.50,1688.50 779.91,1627.28 786.50,1578.50
             789.53,1556.02 797.18,1526.89 794.50,1525.00
             786.00,1519.00 747.50,1511.00 747.50,1511.00
             736.30,1523.47 721.44,1517.17 719.00,1508.00 Z
           M 1516.00,1076.00
           C 1516.00,1071.91 1538.48,1078.86 1559.00,1083.50
             1576.12,1087.37 1591.95,1088.50 1591.50,1091.00
             1590.50,1096.50 1559.50,1092.50 1559.50,1092.50
             1562.50,1101.00 1549.47,1122.08 1543.50,1144.50
             1539.76,1158.54 1539.00,1169.50 1539.00,1169.50
             1553.14,1185.08 1541.50,1197.50 1529.00,1196.00
             1516.50,1194.50 1506.83,1183.60 1530.00,1168.50
             1530.00,1168.50 1529.89,1158.88 1533.50,1143.50
             1538.94,1120.33 1551.50,1094.50 1549.50,1091.00
             1547.50,1087.50 1516.00,1083.50 1516.00,1076.00 Z
           M 377.50,1091.50
           C 375.99,1085.72 398.64,1083.55 420.50,1081.00
             442.15,1078.47 463.00,1075.51 464.00,1078.00
             466.00,1083.00 426.50,1093.50 426.50,1093.50
             426.50,1093.50 427.78,1111.87 432.00,1129.50
             437.58,1152.82 446.50,1177.00 446.50,1177.00
             471.77,1188.88 459.50,1202.50 445.00,1205.00
             430.50,1207.50 415.22,1195.80 436.00,1177.50
             436.00,1177.50 429.06,1155.20 424.00,1132.50
             419.91,1114.17 417.50,1094.50 417.50,1094.50
             417.50,1094.50 380.50,1103.00 377.50,1091.50 Z" />
</svg>