<?xml version="1.0" encoding="UTF-8" standalone="no"?>
<!DOCTYPE svg PUBLIC "-//W3C//DTD SVG 20010904//EN" "http://www.w3.org/TR/2001/REC-SVG-20010904/DTD/svg10.dtd">

<svg xmlns="http://www.w3.org/2000/svg" width="50" height="50" viewBox="0 0 50 50">
  <path id="bulbThreads" fill="none" stroke="black" stroke-width="1" d="M 19.09,23.91
           C 16.09,27.52 8.65,27.00 6.96,25.61
             7.48,27.48 13.30,28.04 18.48,26.91
             15.52,29.13 10.70,29.52 8.09,28.17
             9.74,30.39 13.83,30.13 17.30,29.52
             15.13,31.04 12.00,31.04 12.00,31.04" />
  <path id="bulbNeck" fill="none" stroke="black" stroke-width="1" d="M 6.48,22.22
           C 6.44,21.42 6.91,21.13 6.91,21.13
             6.91,21.13 9.47,23.47 12.35,23.43
             15.90,23.39 19.48,20.87 19.48,20.87
             19.48,20.87 18.52,26.30 12.78,26.00
             7.04,25.70 6.51,23.01 6.48,22.22 Z" />
  <path id="pointBulb" fill="none" stroke="black" stroke-width="1" d="M 13.17,23.65
           C 9.96,23.69 6.74,21.65 6.74,21.65
             6.74,21.65 7.88,18.85 6.35,15.74
             3.18,9.30 -2.44,-3.09 11.48,-2.83
             26.64,-2.54 21.44,8.68 18.61,14.70
             17.58,16.87 18.74,21.52 18.74,21.52
             18.74,21.52 15.92,23.62 13.17,23.65 Z" />
  <path id="distantBulbAzimuth" fill="none" stroke="black" stroke-width="1" d="M -1.09,27.82
           C -4.64,11.82 8.64,10.91 12.82,11.55
             10.36,8.73 -8.27,10.27 -1.09,27.82 Z" />
  <path id="distantBulbElevation" fill="none" stroke="black" stroke-width="1" d="M 7.25,28.75
           C -25.00,21.00 -16.25,-11.75 6.75,-18.25
             -32.75,-8.00 -15.75,30.50 7.25,28.75 Z" />
  <path id="distantBulb" fill="none" stroke="black" stroke-width="1" d="M 7.30,22.04
           C 6.89,21.56 6.82,19.73 5.91,19.04
             5.00,18.35 4.09,-14.00 4.91,-15.73
             5.73,-17.45 19.82,-17.45 21.27,-15.18
             22.73,-12.91 21.80,18.56 21.20,19.18
             20.60,19.80 19.67,20.13 19.13,21.65
             19.13,21.65 13.30,24.57 13.30,24.57
             13.30,24.57 7.80,22.78 7.30,22.04 Z" />
  <path id="spotBulbRear" fill="none" stroke="black" stroke-width="1" d="M 7.09,8.48
           C 7.09,8.48 5.22,4.52 5.22,4.52
             5.22,4.52 6.35,2.39 12.35,2.52
             18.35,2.65 20.52,4.74 20.52,4.74
             20.52,4.74 19.22,8.57 19.22,8.57
             19.22,8.57 7.09,8.48 7.09,8.48 Z" />
  <path id="spotBulbAngle" fill="none" stroke="black" stroke-width="1" d="M 13.17,14.65
           C 13.17,14.65 -0.18,-2.73 -0.18,-2.73
             -0.18,-2.73 26.27,-3.00 26.27,-3.00
             26.27,-3.00 13.17,14.65 13.17,14.65 Z" />
  <path id="spotBulbMain" fill="none" stroke="black" stroke-width="1" d="M 12.70,24.26
           C 6.04,23.74 5.43,19.48 5.43,19.48
             5.43,19.48 5.22,4.43 5.22,4.43
             5.22,4.43 9.38,7.66 13.30,7.65
             17.14,7.64 20.74,4.39 20.74,4.39
             20.74,4.39 20.48,19.52 20.57,19.52
             20.61,19.52 19.35,24.78 12.70,24.26 Z" />
  <path id="spotBulbReflector" fill="none" stroke="black" stroke-width="1" d="M -0.13,3.91
           C -0.13,3.91 12.78,-0.48 12.78,-0.48
             12.78,-0.48 25.57,4.52 25.57,4.52
             25.57,4.52 13.70,11.74 13.70,11.74
             13.70,11.74 -0.13,3.91 -0.13,3.91 Z
          M 13.57,7.96
          C 17.20,7.89 20.92,5.38 20.96,4.74
          21.00,4.07 17.02,2.34 13.13,2.17
          8.92,2.00 4.78,3.46 4.87,4.48
          4.96,5.54 9.28,8.04 13.57,7.96 Z" />
</svg>