<?xml version="1.0" encoding="UTF-8" standalone="no"?>
<!DOCTYPE svg PUBLIC "-//W3C//DTD SVG 20010904//EN" "http://www.w3.org/TR/2001/REC-SVG-20010904/DTD/svg10.dtd">

<svg xmlns="http://www.w3.org/2000/svg" width="50" height="50" viewBox="0 0 50 50">
   <path id="compositeRing" fill="none" stroke="black" stroke-width="1" d="M 37.00,25.00
           C 37.00,31.63 31.63,37.00 25.00,37.00
             18.37,37.00 13.00,31.63 13.00,25.00
             13.00,18.37 18.37,13.00 25.00,13.00
             25.00,13.00 31.63,13.00 37.00,25.00 Z" />
   <path id="over" fill="none" stroke="black" stroke-width="1" d="M 7.00,25.00
           C 7.00,25.00 43.00,25.00 43.00,25.00M 25.00,7.00
           C 25.00,7.00 25.00,43.00 25.00,43.00" />
   <path id="xor" fill="none" stroke="black" stroke-width="1" d="M 13.00,25.00
           C 13.00,25.00 37.00,25.00 37.00,25.00M 25.00,13.00
           C 25.00,13.00 25.00,37.00 25.00,37.00" />
   <path id="atop" fill="none" stroke="black" stroke-width="1" d="M 19.00,25.00
           C 19.00,25.00 31.00,25.00 31.00,25.00M 25.00,19.00
           C 25.00,19.00 25.00,31.00 25.00,31.00" />
   <path id="arithmetic" fill="none" stroke="black" stroke-width="1" d="M 13.00,25.00
           C 13.00,25.00 37.00,25.00 37.00,25.00M 21.00,21.00
           C 21.00,21.00 29.00,29.00 29.00,29.00M 21.00,29.00
           C 21.00,29.00 29.00,21.00 29.00,21.00M 26.50,17.00
           C 26.50,17.83 25.83,18.50 25.00,18.50
             24.17,18.50 23.50,17.83 23.50,17.00
             23.50,16.17 24.17,15.50 25.00,15.50
             25.00,15.50 25.83,15.50 26.50,17.00 Z
           M 26.50,33.00
           C 26.50,33.83 25.83,34.50 25.00,34.50
             24.17,34.50 23.50,33.83 23.50,33.00
             23.50,32.17 24.17,31.50 25.00,31.50
             25.00,31.50 25.83,31.50 26.50,33.00 Z" />
   <path id="in" fill="none" stroke="black" stroke-width="1" d="M 13.00,25.00
           C 13.00,25.00 19.00,25.00 19.00,25.00M 37.00,25.00
           C 37.00,25.00 31.00,25.00 31.00,25.00M 25.00,13.00
           C 25.00,13.00 25.00,19.00 25.00,19.00M 25.00,37.00
           C 25.00,37.00 25.00,31.00 25.00,31.00M 17.00,23.00
           C 17.00,23.00 19.00,25.00 19.00,25.00
             19.00,25.00 17.00,27.00 17.00,27.00M 33.00,23.00
           C 33.00,23.00 31.00,25.00 31.00,25.00
             31.00,25.00 33.00,27.00 33.00,27.00M 23.00,17.00
           C 23.00,17.00 25.00,19.00 25.00,19.00
             25.00,19.00 27.00,17.00 27.00,17.00M 23.00,33.00
           C 23.00,33.00 25.00,31.00 25.00,31.00
             25.00,31.00 27.00,33.00 27.00,33.00" />
   <path id="out" fill="none" stroke="black" stroke-width="1" d="M 13.00,25.00
           C 13.00,25.00 7.00,25.00 7.00,25.00M 37.00,25.00
           C 37.00,25.00 43.00,25.00 43.00,25.00M 25.00,13.00
           C 25.00,13.00 25.00,7.00 25.00,7.00M 25.00,37.00
           C 25.00,37.00 25.00,43.00 25.00,43.00M 9.00,23.00
           C 9.00,23.00 7.00,25.00 7.00,25.00
             7.00,25.00 9.00,27.00 9.00,27.00M 41.00,23.00
           C 41.00,23.00 43.00,25.00 43.00,25.00
             43.00,25.00 41.00,27.00 41.00,27.00M 23.00,9.00
           C 23.00,9.00 25.00,7.00 25.00,7.00
             25.00,7.00 27.00,9.00 27.00,9.00M 23.00,41.00
           C 23.00,41.00 25.00,43.00 25.00,43.00
             25.00,43.00 27.00,41.00 27.00,41.00" />
</svg>