<?xml version="1.0" encoding="UTF-8" standalone="no"?>
<!DOCTYPE svg PUBLIC "-//W3C//DTD SVG 20010904//EN" "http://www.w3.org/TR/2001/REC-SVG-20010904/DTD/svg10.dtd">

<svg xmlns="http://www.w3.org/2000/svg" width="50" height="50" viewBox="0 0 50 50">
  <path id="mergeMain" fill="none" stroke="black" stroke-width="1" d="M 8.12,21.78
           C 7.31,20.97 6.19,20.47 4.95,20.47
             2.47,20.47 0.47,22.47 0.47,24.95
             0.47,27.43 2.47,29.43 4.95,29.43
             6.19,29.43 7.31,28.93 8.12,28.12
             8.12,28.12 41.78,28.12 41.78,28.12
             42.59,28.93 43.71,29.43 44.95,29.43
             47.43,29.43 49.43,27.43 49.43,24.95
             49.43,22.47 47.43,20.47 44.95,20.47
             43.71,20.47 42.59,20.97 41.78,21.78
             41.78,21.78 8.12,21.78 8.12,21.78 Z
           M 15.29,10.81
           C 15.29,10.81 15.29,10.81 15.29,10.81
             15.29,8.33 13.28,6.32 10.81,6.32
             8.33,6.32 6.32,8.33 6.32,10.81
             6.32,13.28 8.33,15.29 10.81,15.29
             10.81,15.29 10.81,15.29 10.81,15.29
             10.81,15.29 34.61,39.09 34.61,39.09
             34.61,41.57 36.62,43.58 39.09,43.58
             41.57,43.58 43.58,41.57 43.58,39.09
             43.58,36.62 41.57,34.61 39.09,34.61
             39.09,34.61 15.29,10.81 15.29,10.81 Z
           M 28.12,8.12
           C 28.93,7.31 29.43,6.19 29.43,4.95
             29.43,2.47 27.43,0.47 24.95,0.47
             22.47,0.47 20.47,2.47 20.47,4.95
             20.47,6.19 20.97,7.31 21.78,8.12
             21.78,8.12 21.78,41.78 21.78,41.78
             20.97,42.59 20.47,43.71 20.47,44.95
             20.47,47.43 22.47,49.43 24.95,49.43
             27.43,49.43 29.43,47.43 29.43,44.95
             29.43,43.71 28.93,42.59 28.12,41.78
             28.12,41.78 28.12,8.12 28.12,8.12 Z
           M 39.09,15.29
           C 39.09,15.29 39.09,15.29 39.09,15.29
             41.57,15.29 43.58,13.28 43.58,10.81
             43.58,8.33 41.57,6.32 39.09,6.32
             36.62,6.32 34.61,8.33 34.61,10.81
             34.61,10.81 34.61,10.81 34.61,10.81
             34.61,10.81 10.81,34.61 10.81,34.61
             8.33,34.61 6.33,36.62 6.33,39.09
             6.33,41.57 8.33,43.58 10.81,43.58
             13.29,43.58 15.29,41.57 15.29,39.09
             15.29,39.09 39.09,15.29 39.09,15.29 Z" />
</svg>