<?xml version="1.0" encoding="UTF-8" standalone="no"?>
<!DOCTYPE svg PUBLIC "-//W3C//DTD SVG 20010904//EN" "http://www.w3.org/TR/2001/REC-SVG-20010904/DTD/svg10.dtd">

<svg xmlns="http://www.w3.org/2000/svg" width="50" height="50" viewBox="0 0 50 50">
  <defs>
    <path class="turbulenceOctaveBounds" fill="none" stroke="black" stroke-width="1" d="M 2.82,22.73
           C 2.82,22.73 49.09,22.36 49.09,22.36
             49.09,22.36 48.27,48.09 48.00,48.09
             47.73,48.09 1.55,48.55 1.55,48.55
             1.55,48.55 2.82,22.73 2.82,22.73 Z" />
    <path class="turbulenceBaseFrequencyBounds" fill="none" stroke="black" stroke-width="1" d="M 2.09,27.45
           C 2.09,27.45 47.18,27.91 47.18,28.00
             47.18,28.09 47.45,2.73 47.45,2.73
             47.45,2.73 2.82,3.45 2.82,3.45
             2.82,3.45 2.09,27.45 2.09,27.45 Z" />
  </defs>
  <path class="turbulenceOctaveTab" fill="none" stroke="black" stroke-width="1" d="M 6.64,27.00
           C 6.64,27.00 6.00,21.09 6.00,21.09
             6.00,21.09 20.91,20.45 20.91,20.45
             20.91,20.45 25.36,10.64 25.36,10.64
             25.36,10.64 30.45,21.55 30.45,21.55
             30.45,21.55 43.36,21.55 43.36,21.55
             43.36,21.55 44.00,27.18 44.00,27.18
             44.00,27.18 6.64,27.00 6.64,27.00 Z" />
  <path class="turbulenceBaseFrequencyTab" fill="none" stroke="black" stroke-width="1" d="M 6.91,29.45
           C 6.91,29.45 6.55,22.82 6.55,22.82
             6.55,22.82 44.91,23.64 44.91,23.64
             44.91,23.64 45.36,28.82 45.36,28.82
             45.36,28.82 31.73,29.27 31.73,29.27
             31.73,29.27 27.00,39.91 27.00,39.91
             27.00,39.91 22.73,30.82 22.73,30.82
             22.73,30.82 6.91,29.45 6.91,29.45 Z" />
  <path class="turbulenceMain" fill="none" stroke="black" stroke-width="1" d="M 4.73,21.64
           C 4.73,21.64 21.45,21.73 21.45,21.73
             21.45,21.73 25.45,14.73 25.45,14.73
             25.45,14.73 29.82,22.45 29.82,22.45
             29.82,22.45 45.73,22.73 45.73,22.73
             45.73,22.73 45.82,28.00 45.82,28.00
             45.82,28.00 30.64,27.82 30.64,27.82
             30.64,27.82 27.00,35.64 27.00,35.64
             27.00,35.64 22.73,29.09 22.73,29.09
             22.73,29.09 4.73,28.36 4.73,28.36
             4.73,28.36 4.73,21.64 4.73,21.64 Z" />
  <path class="turbulenceTypeSwitch" fill="none" stroke="black" stroke-width="1" d="M 23.27,24.27
           C 23.27,24.27 27.73,24.45 27.73,24.45
             27.73,24.45 27.36,26.73 27.36,26.73
             27.36,26.73 23.27,26.45 23.27,26.45
             23.27,26.45 23.27,24.27 23.27,24.27 Z" />
</svg>