<?xml version="1.0" encoding="UTF-8" standalone="no"?>
<!DOCTYPE svg PUBLIC "-//W3C//DTD SVG 20010904//EN" "http://www.w3.org/TR/2001/REC-SVG-20010904/DTD/svg10.dtd">

<svg xmlns="http://www.w3.org/2000/svg" width="50" height="50" viewBox="0 0 50 50">
   <path class="displacementXSwitch" fill="none" stroke="black" stroke-width="1" d="M 9.25,6.00
           C 9.25,6.00 9.75,2.25 9.75,2.25
             9.75,2.25 16.88,2.38 16.88,2.38
             16.88,2.38 16.44,6.12 16.44,6.12
             16.44,6.12 9.25,6.00 9.25,6.00 Z" />
   <path class="displacementYSwitch" fill="none" stroke="black" stroke-width="1" d="M 32.19,2.44
           C 32.19,2.44 40.06,2.50 40.06,2.50
             40.06,2.50 40.00,6.88 40.00,6.88
             40.00,6.88 31.75,6.19 31.69,6.19
             31.62,6.19 32.19,2.44 32.19,2.44 Z" />
   <path class="displacementMain" fill="none" stroke="black" stroke-width="1" d="M 0.06,19.81
           C 0.06,19.81 -1.06,8.88 3.75,5.94
             8.56,3.00 43.44,3.44 44.81,6.25
             46.19,9.06 45.12,21.19 45.12,21.19
             45.12,21.19 49.75,21.62 49.38,25.81
             49.00,30.00 45.38,30.00 45.38,30.00
             45.38,30.00 47.25,49.44 32.06,48.88
             32.06,48.88 27.00,43.25 27.00,43.25
             27.00,43.25 22.69,49.00 22.69,49.00
             15.19,49.06 1.75,49.62 0.75,44.75
             0.69,44.50 0.12,29.19 0.12,29.19
             0.12,29.19 6.19,24.69 6.19,24.69
             6.19,24.69 0.06,19.81 0.06,19.81 Z" />
</svg>