<?xml version="1.0" encoding="UTF-8" standalone="no"?>
<!DOCTYPE svg PUBLIC "-//W3C//DTD SVG 20010904//EN" "http://www.w3.org/TR/2001/REC-SVG-20010904/DTD/svg10.dtd">

<svg xmlns="http://www.w3.org/2000/svg" width="50" height="50" viewBox="0 0 50 50">
  <defs>
    <path id="erodePath" class="morphologyErode" fill="none" stroke="black" stroke-width="1"
      d="M 21 18 A 3 3 0 1 1 29 18 A 3 3 0 0 0 32 21 A 3 3 0 1 1 32 29 A 3 3 0 0 0 29 32 A 3 3 0 1 1 21 32 A 3 3 0 0 0 18 29 A 3 3 0 1 1 18 21 A 3 3 0 0 0 21 18 z" />
  </defs>
  <path id="dilatePath" class="morphologyDilate" fill="none" stroke="black" stroke-width="1"
    d="M 40 25 C 40 33.3 33.3 40 25 40 C 16.7 40 10 33.3 10 25 C 10 16.7 16.7 10 25 10 C 25 10 40 10 40 25 Z" />
  <path class="morphologyRadius" fill="none" stroke="black" stroke-width="1" d="M 44.62,4.25
           C 46.50,0.00 51.50,8.62 48.88,9.88
             46.25,11.12 41.50,14.75 41.50,14.75
             41.50,14.75 39.12,14.50 36.88,15.88
             38.00,14.25 38.50,11.25 38.50,11.25
             38.50,11.25 42.75,8.50 44.62,4.25 Z" />
  <path class="morphologyTop" fill="none" stroke="black" stroke-width="1"
    d="M 21 13 A 5 5 0 1 1 29 13 A 5 5 0 0 0 37 21 A 5 5 0 1 1 37 29 A 5 5 0 0 0 29 37 A 5 5 0 1 1 21 37 A 5 5 0 0 0 13 29 A 5 5 0 1 1 13 21 A 5 5 0 0 0 21 13 z" />
</svg>