<?xml version="1.0" encoding="UTF-8" standalone="no"?>
<!DOCTYPE svg PUBLIC "-//W3C//DTD SVG 20010904//EN" "http://www.w3.org/TR/2001/REC-SVG-20010904/DTD/svg10.dtd">

<svg xmlns="http://www.w3.org/2000/svg" width="50" height="50" viewBox="0 0 50 50">
  <defs>
    <path id="erodePath" class="morphologyErode" fill="none" stroke="black" stroke-width="1" d="M 16.38,33.88
           C 11.42,29.07 2.42,29.19 2.50,23.25
             2.56,17.71 12.59,18.94 17.88,14.88
             22.61,11.24 22.32,1.96 27.75,2.38
             33.40,2.80 32.42,11.66 36.12,15.88
             39.96,20.24 48.38,20.05 48.12,24.62
             47.83,30.02 40.47,29.54 35.38,34.38
             31.99,37.60 32.59,47.55 26.00,47.25
             18.82,46.92 20.18,37.56 16.38,33.88 Z" />
  </defs>
  <path id="dilatePath" class="morphologyDilate" fill="none" stroke="black" stroke-width="1" d="M 9.62,40.75
           C 4.68,35.95 2.42,29.19 2.50,23.25
             2.56,17.71 6.39,11.96 11.69,7.89
             16.41,4.25 22.32,1.96 27.75,2.38
             33.40,2.80 38.54,6.01 42.24,10.22
             46.08,14.60 48.38,20.05 48.12,24.62
             47.83,30.02 45.85,37.38 40.75,42.21
             37.36,45.44 32.59,47.55 26.00,47.25
             18.82,46.92 13.42,44.44 9.62,40.75 Z" />
  <path class="morphologyRadius" fill="none" stroke="black" stroke-width="1" d="M 44.62,4.25
           C 46.50,0.00 51.50,8.62 48.88,9.88
             46.25,11.12 41.50,14.75 41.50,14.75
             41.50,14.75 39.12,14.50 36.88,15.88
             38.00,14.25 38.50,11.25 38.50,11.25
             38.50,11.25 42.75,8.50 44.62,4.25 Z" />
  <path class="morphologyTop" fill="none" stroke="black" stroke-width="1" d="M 7.62,18.50
           C 18.25,18.12 21.00,22.12 20.88,9.25
             20.75,-3.62 33.00,-1.50 33.00,9.25
             33.00,20.00 32.25,18.50 42.25,18.75
             52.25,19.00 52.12,30.12 42.75,29.88
             33.38,29.62 30.88,30.00 30.88,41.12
             30.88,52.25 20.12,52.00 20.12,41.38
             20.12,30.75 19.62,29.62 9.12,29.50
             -1.38,29.38 -3.00,18.88 7.62,18.50 Z" />
</svg>