<?xml version="1.0" encoding="UTF-8" standalone="no"?>
<!DOCTYPE svg PUBLIC "-//W3C//DTD SVG 20010904//EN" "http://www.w3.org/TR/2001/REC-SVG-20010904/DTD/svg10.dtd">

<svg xmlns="http://www.w3.org/2000/svg" width="50" height="50" viewBox="0 0 50 50">
  <path id="displacementMapFixtureX" fill="none" stroke="black" stroke-width="1" d="M 5.62,44.12
           C 5.62,44.12 4.62,33.94 4.62,33.94
             4.62,33.94 8.06,33.88 8.00,34.12
             7.94,34.38 8.81,44.25 8.81,44.25
             8.81,44.25 5.62,44.12 5.62,44.12 Z" />
  <path id="displacementMapFixtureY" fill="none" stroke="black" stroke-width="1" d="M 8.31,7.50
           C 8.31,7.06 8.75,3.69 8.75,3.69
             8.75,3.69 18.38,3.31 18.38,3.31
             18.38,3.31 18.44,6.88 18.44,6.88
             18.44,6.88 8.31,7.94 8.31,7.50 Z" />
  <path id="displacementMapButtonX" fill="none" stroke="black" stroke-width="1" d="M 7.81,43.31
           C 7.81,43.31 3.06,42.19 3.06,42.19
             3.06,42.19 2.88,35.38 2.88,35.44
             2.88,35.50 6.62,34.06 6.69,34.38
             6.75,34.69 7.81,43.31 7.81,43.31 Z" />
  <path id="displacementMapButtonY" fill="none" stroke="black" stroke-width="1" d="M 9.31,5.19
           C 9.44,5.06 11.00,1.56 11.38,1.62
             11.75,1.69 16.12,1.88 16.19,1.81
             16.25,1.75 17.44,4.44 17.50,4.62
             17.56,4.81 9.19,5.31 9.31,5.19 Z" />
  <path id="displacementMapMain" fill="none" stroke="black" stroke-width="1" d="M 7.06,5.56
           C 9.44,3.88 39.12,3.50 40.62,6.50
             42.12,9.50 44.38,44.69 40.06,46.75
             35.75,48.81 10.69,48.50 8.12,46.06
             5.56,43.62 4.69,7.25 7.06,5.56 Z" />
</svg>