<?xml version="1.0" encoding="UTF-8" standalone="no"?>
<!DOCTYPE svg PUBLIC "-//W3C//DTD SVG 20010904//EN" "http://www.w3.org/TR/2001/REC-SVG-20010904/DTD/svg10.dtd">

<svg xmlns="http://www.w3.org/2000/svg" width="50" height="50" viewBox="0 0 50 50">
   <path id="colorMatrixRear" fill="none" stroke="black" stroke-width="1" d="M 6.00,10.18
           C 6.00,10.18 22.91,-0.64 45.00,2.27
             45.00,2.27 43.36,21.82 44.36,32.18
             39.73,33.82 6.00,10.18 6.00,10.18 Z" />
   <path id="colorMatrixMain" fill="none" stroke="black" stroke-width="1" d="M 6.18,9.73
           C 9.27,7.73 44.27,17.73 44.27,17.73
             44.27,17.73 46.55,43.91 43.82,47.09
             41.09,50.27 5.45,40.18 5.45,40.18
             5.45,40.18 3.09,11.73 6.18,9.73 Z" />
   <path id="colorMatrixSwitch" fill="none" stroke="black" stroke-width="1" d="M 22.82,6.91
           C 22.82,6.91 31.00,6.55 31.00,6.55
             31.00,6.55 31.09,9.82 31.09,9.82
             31.09,9.82 22.91,9.45 22.91,9.45
             22.91,9.45 22.82,6.91 22.82,6.91 Z" />
</svg>