<?xml version="1.0" encoding="UTF-8" standalone="no"?>
<!DOCTYPE svg PUBLIC "-//W3C//DTD SVG 20010904//EN" "http://www.w3.org/TR/2001/REC-SVG-20010904/DTD/svg10.dtd">

<svg xmlns="http://www.w3.org/2000/svg" width="50" height="50" viewBox="0 0 50 50">
  <path id="turbulenceMain" fill="none" stroke="black" stroke-width="1" d="M 48.33,21.33
           C 50.29,23.29 50.29,26.45 48.33,28.41
             48.33,28.41 28.54,48.20 28.54,48.20
             26.58,50.16 23.42,50.16 21.46,48.20
             21.46,48.20 1.67,28.41 1.67,28.41
             -0.29,26.45 -0.29,23.29 1.67,21.33
             1.67,21.33 21.46,1.54 21.46,1.54
             23.42,-0.42 26.58,-0.42 28.54,1.54
             28.54,1.54 48.33,21.33 48.33,21.33 Z" />
  <path id="turbulenceNumOctavesTab" fill="none" stroke="black" stroke-width="1" d="M 8.73,44.82
           C 8.73,44.82 8.09,24.27 9.82,21.82
             11.55,19.36 17.82,23.27 20.55,20.91
             23.27,18.55 25.36,11.64 25.36,11.64
             25.36,11.64 26.55,19.73 30.00,21.18
             33.45,22.64 38.36,19.73 40.09,21.73
             41.82,23.73 40.73,44.18 40.73,44.18
             40.73,44.18 8.73,44.82 8.73,44.82 Z" />
  <path id="turbulenceBaseFrequencyTab" fill="none" stroke="black" stroke-width="1" d="M 8.73,5.18
           C 8.73,5.18 8.09,25.73 9.82,28.18
             11.55,30.64 17.82,26.73 20.55,29.09
             23.27,31.45 25.36,38.36 25.36,38.36
             25.36,38.36 26.55,30.27 30.00,28.82
             33.45,27.36 38.36,30.27 40.09,28.27
             41.82,26.27 40.73,5.82 40.73,5.82
             40.73,5.82 8.73,5.18 8.73,5.18 Z" />
  <path id="turbulenceTypeSwitch" fill="none" stroke="black" stroke-width="1" d="M 25,24
           C 26.44,23.75 28.00,23.00 28.00,23.00
             28.00,23.00 27.59,24.06 27.59,25
             27.59,26.06 28.00,27.00 28.00,27.00
             28.00,27.00 26.45,26.33 25,26.33
             23.45,26.33 22.00,27.00 22.00,27.00
             22.00,27.00 22.33,26.00 22.33,25.11
             22.33,24.02 22.00,23.00 22.00,23.00
             22.00,23.00 23.45,23.75 25,24 Z" />
  <rect x="22" y="23" width="6" height="4" />
</svg>