<?xml version="1.0" encoding="UTF-8" standalone="no"?>
<!DOCTYPE svg PUBLIC "-//W3C//DTD SVG 20010904//EN"
              "http://www.w3.org/TR/2001/REC-SVG-20010904/DTD/svg10.dtd">

<svg xmlns="http://www.w3.org/2000/svg"
     width="0.555556in" height="0.555556in"
     viewBox="0 0 50 50">
  <path id="Imported Path #4"
        fill="none" stroke="black" stroke-width="1"
        d="M 22.94,49.38
           C 13.12,49.46 1.83,50.12 1.19,49.00
             -0.25,46.50 0.31,7.69 2.38,5.12
             4.44,2.56 47.19,3.06 48.38,4.25
             49.56,5.44 50.94,46.62 47.94,48.38
             44.94,50.12 35.06,49.27 22.94,49.38 Z
           M 7.18,42.45
           C 8.55,44.08 19.41,43.56 20.91,42.18
             22.41,40.81 23.06,35.62 21.25,33.88
             19.44,32.12 8.12,32.12 7.00,33.62
             5.88,35.12 5.81,40.83 7.18,42.45 Z" />
</svg>
